<svg xmlns="http://www.w3.org/2000/svg" xmlns:xlink="http://www.w3.org/1999/xlink" xmlns:sketch="http://www.bohemiancoding.com/sketch/ns" viewBox="0 0 100 125" version="1.1" x="0px" y="0px"><title>eye-fill 52</title><desc>Created with Sketch.</desc><g stroke="none" stroke-width="1" fill="none" fill-rule="evenodd" sketch:type="MSPage"><path d="M73.07625,72.6740625 L59.3175,72.6740625 L59.3175,53.4515625 C59.3175,52.4165625 58.4775,51.5765625 57.4425,51.5765625 L43.38375,51.5765625 C42.34875,51.5765625 41.50875,52.4165625 41.50875,53.4515625 L41.50875,72.6740625 L27.75,72.6740625 L27.75,46.2553125 L50.415,28.2703125 L73.07625,46.2553125 L73.07625,72.6740625 Z M55.5675,72.6740625 L45.25875,72.6740625 L45.25875,55.3265625 L55.5675,55.3265625 L55.5675,72.6740625 Z M76.1175,43.8778125 L51.58125,24.4078125 C50.89875,23.8640625 49.93125,23.8640625 49.24875,24.4078125 L24.7125,43.8778125 C24.25875,44.2340625 24,44.7740625 24,45.3478125 L24,74.5490625 C24,75.5840625 24.84,76.4240625 25.875,76.4240625 L43.38375,76.4240625 L57.4425,76.4240625 L74.95125,76.4240625 C75.98625,76.4240625 76.82625,75.5840625 76.82625,74.5490625 L76.82625,45.3478125 C76.82625,44.7778125 76.5675,44.2340625 76.1175,43.8778125 L76.1175,43.8778125 Z" fill="#000000" sketch:type="MSShapeGroup"/></g><text x="0" y="115" fill="#000000" font-size="5px" font-weight="bold" font-family="'Helvetica Neue', Helvetica, Arial-Unicode, Arial, Sans-serif">Created by Icon Island</text><text x="0" y="120" fill="#000000" font-size="5px" font-weight="bold" font-family="'Helvetica Neue', Helvetica, Arial-Unicode, Arial, Sans-serif">from the Noun Project</text></svg>